<svg class="typescript-long" fill="none" height="25" viewBox="0 0 105 25" width="105"
    xmlns="http://www.w3.org/2000/svg">
    <path clip-rule="evenodd" d="m52.8777 17.6304v-1.4159c1.2926.8186 2.6019 1.228 3.9281 1.228 1.41 0 2.4802-.2903 3.2104-.8709s1.0953-1.393 1.0953-2.4372c0-.9189-.2455-1.6519-.7365-2.1991-.4735-.5276-1.4796-1.2397-3.0184-2.13631l-.1732-.10038c-1.8297-1.06092-2.988-1.94849-3.4748-2.66273-.4868-.71425-.7302-1.53916-.7302-2.47478 0-1.26976.4952-2.34737 1.4856-3.23287.9904-.88549 2.3124-1.32823 3.9659-1.32823 1.0743 0 2.1486.179602 3.223.538812v1.303168c-1.0576-.47616-2.1865-.71423-3.3867-.71423-1.2254 0-2.197.30908-2.9146.92725-.7176.61818-1.0764 1.40341-1.0764 2.35574 0 .9189.2455 1.64984.7365 2.19283.491.543 1.5506 1.28229 3.1789 2.2179 1.6871.95233 2.8097 1.79813 3.3678 2.53743.5582.7393.8373 1.5893.8373 2.55 0 1.3783-.4805 2.5019-1.4416 3.3707-.961.8687-2.3186 1.3031-4.0728 1.3031-.6211 0-1.3366-.096-2.1466-.2882-.8099-.1921-1.4289-.4135-1.857-.6641zm-44.74534-14.7957h5.16264v-2.532528h-13.295v2.532528h5.15008v15.4459h2.98228zm9.92154 17.5014 5.8166-14.89726h-2.9461l-3.223 9.35466c-.0764.2868-.1363.5202-.1798.7005l-.0468.2024h-.0629c-.0672-.2867-.1206-.5105-.1604-.6715l-.0663-.2565-3.0719-9.32956h-3.2356l5.1241 12.81566-.8687 2.1067c-.5372 1.07-1.3513 1.6051-2.4425 1.6051-.3777 0-.7973-.0753-1.259-.2258v2.4202c.4113.1087.9233.163 1.536.163 2.1823 0 3.8777-1.3292 5.0863-3.9876zm10.5978-3.9583h-.0503v7.7948h-2.918v-18.73516h2.918v2.25574h.0503c.9978-1.70435 2.4567-2.55651 4.3769-2.55651 1.635 0 2.9095.57229 3.8235 1.71687.9139 1.14459 1.3709 2.68182 1.3709 4.61176 0 2.1388-.5157 3.8515-1.547 5.1381s-2.44 1.9299-4.226 1.9299c-1.6434 0-2.9095-.7185-3.7983-2.1555zm-.0978-3.4018v-1.583c0-1.0968.3163-2.0109.9488-2.74216.6325-.73125 1.4681-1.09688 2.5069-1.09688.9802 0 1.7572.35524 2.331 1.06572.5739.71049.8608 1.69312.8608 2.94792 0 1.4957-.3078 2.6611-.9236 3.4963-.6157.8351-1.4639 1.2527-2.5446 1.2527-.9215 0-1.6818-.3241-2.2808-.9723-.599-.6481-.8985-1.4376-.8985-2.3683zm22.813-.3261h-8.703c.0332 1.1874.3969 2.103 1.091 2.7469s1.6479.9658 2.8615.9658c1.3632 0 2.6142-.4097 3.753-1.2292v2.3455c-1.1637.7359-2.7015 1.1038-4.6133 1.1038-1.8786 0-3.352-.5832-4.4201-1.7497s-1.6022-2.8075-1.6022-4.9231c0-1.99856.5881-3.62703 1.7643-4.88552 1.1762-1.25848 2.6371-1.88771 4.3827-1.88771s3.0963.56443 4.0522 1.6933 1.4339 2.69672 1.4339 4.70363zm-3.4528-4.52311c.4806.58334.7251 1.39958.7334 2.44871h-5.8921c.1326-.99038.4869-1.79193 1.0628-2.40464.576-.61272 1.2783-.91907 2.107-.91907.8453 0 1.5082.29166 1.9889.875zm21.8704 10.45591c1.3315 0 2.4776-.2921 3.4383-.8764v-1.2018c-.9607.6844-2.0899 1.0266-3.3878 1.0266-1.4157 0-2.5555-.505-3.4193-1.5149s-1.2957-2.3453-1.2957-4.0063c0-1.7193.4719-3.11943 1.4158-4.2003.9438-1.08086 2.1742-1.62128 3.6911-1.62128 1.104 0 2.1195.28377 3.0465.85133v-1.30204c-.927-.40063-1.8835-.60094-2.8695-.60094-1.9046 0-3.4636.64893-4.6771 1.9468-1.2136 1.29787-1.8203 2.96503-1.8203 5.00153 0 1.9364.5393 3.5034 1.618 4.7012 1.0787 1.1977 2.4987 1.7965 4.26 1.7965zm11.0428-11.9856c-.3837-.27698-.8341-.41547-1.3512-.41547-1.0093 0-1.8559.52458-2.5399 1.57375-.684 1.04916-1.026 2.53892-1.026 4.46942v6.0558h-1.126v-12.89213h1.126v2.85791h.0501c.2919-.98202.7548-1.7458 1.3888-2.29136.6339-.54557 1.3679-.81835 2.202-.81835.4755 0 .9009.07554 1.2762.22662zm1.8042-4.61517c.1955.18952.4208.28427.6759.28427.2721 0 .5059-.09906.7014-.29719.1956-.19812.2934-.43501.2934-.71067 0-.292879-.0999-.525459-.2997-.697743s-.4315-.258425-.6951-.258425c-.2466 0-.4698.088294-.6696.264885-.1998.176592-.2997.407018-.2997.691283 0 .29289.0978.53408.2934.72359zm.0088 16.29867v-12.84176h1.2086v12.84176zm5.0798-2.2859h.0501c.9181 1.7283 2.337 2.5924 4.2566 2.5924 1.7194 0 3.1028-.6617 4.1502-1.985 1.0475-1.3234 1.5712-3.0579 1.5712-5.2036 0-1.92865-.4569-3.45443-1.3709-4.5774-.9139-1.12296-2.1846-1.68443-3.8121-1.68443-1.0266 0-1.9677.25673-2.8232.77021-.8555.51347-1.5127 1.24192-1.9718 2.18538h-.0501v-2.6425h-1.1517v18.72284h1.1517zm.0569-4.7728v1.6133c0 1.284.4088 2.3867 1.2264 3.308s1.8923 1.382 3.2241 1.382c1.3233 0 2.398-.5607 3.2241-1.6822.826-1.1214 1.239-2.5951 1.239-4.421 0-1.60088-.3793-2.87236-1.1379-3.81453-.7586-.94216-1.7701-1.41324-3.0344-1.41324-1.5088 0-2.6762.50026-3.5023 1.50079-.826 1.00053-1.239 2.17613-1.239 3.52688zm15.542 7.3608c.523 0 1.083-.1417 1.681-.4252v-1.0754c-.548.3084-1.058.4627-1.532.4627-.664 0-1.135-.198-1.413-.594s-.417-1.0359-.417-1.9196v-8.45368h3.362v-1.05046h-3.362v-3.71411c-.183.06669-.373.12922-.573.18758-.199.06669-.39.13339-.572.20009v3.32644h-2.2916v1.05046h2.2916v8.60378c0 2.2676.942 3.4014 2.826 3.4014z" fill="#fff" fill-rule="evenodd"></path>
</svg>